HIERARCHY
ROOT Hips
{
  OFFSET 196.326 95.9168 97.7182
  CHANNELS 6 Xposition Yposition Zposition Zrotation Xrotation Yrotation
  JOINT LeftUpLeg
  {
    OFFSET 8.64259 1.95398 -2.38835
    CHANNELS 3 Zrotation Xrotation Yrotation
    JOINT LeftLeg
    {
      OFFSET 43.7702 0 0
      CHANNELS 3 Zrotation Xrotation Yrotation
      JOINT LeftFoot
      {
        OFFSET 40.6238 0 0
        CHANNELS 3 Zrotation Xrotation Yrotation
        JOINT LeftToeBase
        {
          OFFSET 12.7242 0 0
          CHANNELS 3 Zrotation Xrotation Yrotation
          End Site
          {
            OFFSET 0 0 0
          }
        }
      }
    }
  }
  JOINT RightUpLeg
  {
    OFFSET -8.2249 1.95398 -2.59336
    CHANNELS 3 Zrotation Xrotation Yrotation
    JOINT RightLeg
    {
      OFFSET 43.5653 0 0
      CHANNELS 3 Zrotation Xrotation Yrotation
      JOINT RightFoot
      {
        OFFSET 40.6238 0 0
        CHANNELS 3 Zrotation Xrotation Yrotation
        JOINT RightToeBase
        {
          OFFSET 12.7242 0 0
          CHANNELS 3 Zrotation Xrotation Yrotation
          End Site
          {
            OFFSET 0 0 0
          }
        }
      }
    }
  }
  JOINT Spine
  {
    OFFSET 0.165834 0.87714 6.61349
    CHANNELS 3 Zrotation Xrotation Yrotation
    JOINT Spine1
    {
      OFFSET 7.38963 1.71661e-005 0
      CHANNELS 3 Zrotation Xrotation Yrotation
      JOINT Spine2
      {
        OFFSET 11.9445 1.14441e-005 0
        CHANNELS 3 Zrotation Xrotation Yrotation
        JOINT Spine3
        {
          OFFSET 14.7254 4.19617e-005 0
          CHANNELS 3 Zrotation Xrotation Yrotation
          JOINT Spine4
          {
            OFFSET 10.9679 0 0
            CHANNELS 3 Zrotation Xrotation Yrotation
            JOINT RightShoulder
            {
              OFFSET 2.46616 -1.6653 3.69651
              CHANNELS 3 Zrotation Xrotation Yrotation
              JOINT RightArm
              {
                OFFSET 13.0012 0 0
                CHANNELS 3 Zrotation Xrotation Yrotation
                JOINT RightForeArm
                {
                  OFFSET 28.7848 1.52588e-005 0
                  CHANNELS 3 Zrotation Xrotation Yrotation
                  JOINT RightHand
                  {
                    OFFSET 26.5688 1.52588e-005 0
                    CHANNELS 3 Zrotation Xrotation Yrotation
                    End Site
                    {
                      OFFSET 0 0 0
                    }
                  }
                }
              }
            }
            JOINT LeftShoulder
            {
              OFFSET 2.38034 -1.29275 -3.75231
              CHANNELS 3 Zrotation Xrotation Yrotation
              JOINT LeftArm
              {
                OFFSET 16.3182 6.10351e-005 0
                CHANNELS 3 Zrotation Xrotation Yrotation
                JOINT LeftForeArm
                {
                  OFFSET 27.0901 0 0
                  CHANNELS 3 Zrotation Xrotation Yrotation
                  JOINT LeftHand
                  {
                    OFFSET 24.5451 1.52588e-005 0
                    CHANNELS 3 Zrotation Xrotation Yrotation
                    End Site
                    {
                      OFFSET 0 0 0
                    }
                  }
                }
              }
            }
            JOINT Neck
            {
              OFFSET 5.0226 -0.0266342 0
              CHANNELS 3 Zrotation Xrotation Yrotation
              JOINT Head
              {
                OFFSET 6.69363 2.86102e-005 0
                CHANNELS 3 Zrotation Xrotation Yrotation
                End Site
                {
                  OFFSET 0 0 0
                }
              }
            }
          }
        }
      }
    }
  }
}
MOTION
Frames:	12
Frame Time:	0.0416667
28.5688 90.9933 -27.3878 87.355 -46.1782 82.6629 -170.923 29.7679 83.3417 -31.9726 14.8382 -4.83427 59.7386 5.8828 17.7902 48.3179 15.6445 -28.191 178.253 7.48765 84.8375 -59.4558 1.9917 -6.36598 35.7285 3.21356 3.75404 34.6706 0.166722 18.4225 0.966595 7.29103 -88.975 12.2712 2.4069 1.77506 0.601448 2.48269 1.66739 -21.9347 1.76229 2.41626 -1.92205 1.76232 2.41625 81.8653 -48.5999 -113.651 24.755 -9.30548 3.66283 -9.97045 -9.34114 -53.3256 -13.7363 -1.07162 4.09785 -97.6164 -43.2617 65.0653 -39.9009 4.27937 20.9617 2.44692 12.3986 -16.8197 5.10121 0.606043 6.23924 7.9174 -4.39853 0.976739 0.736713 -4.64187 -1.86317 
34.6095 92.6275 -23.3851 87.7697 -44.2096 83.8971 -172.121 23.7415 83.2109 -30.4133 13.4008 -3.80585 63.8339 9.31296 16.3319 40.8906 10.485 -30.8071 178.322 15.6382 86.3508 -65.4519 9.05176 -5.25372 42.1541 0.633263 1.08124 28.74 -1.07914 16.811 0.678942 7.28766 -89.1832 12.2862 1.73666 1.43505 0.615728 1.79813 1.35723 -21.9183 1.22515 1.89057 -1.90569 1.22515 1.89057 81.7906 -49.9091 -113.269 25.9479 -9.664 6.57772 -7.65948 -10.1642 -47.4838 -11.2764 -0.902775 4.12339 -98.2238 -42.7181 63.9005 -39.9166 5.53131 16.4038 2.04534 8.51613 -20.0651 8.63905 0.867253 5.54196 7.33158 -3.80532 1.27273 0.374668 -4.06967 -1.19626 
40.7691 94.6899 -19.5345 88.5257 -41.31 86.5087 -173.833 16.6968 84.1882 -26.0295 15.0524 -2.32011 62.5877 8.29098 16.5565 42.0108 11.4683 -27.8758 177.306 21.073 88.576 -63.1619 11.7451 -3.51324 48.5139 -0.853303 -0.272648 34.6353 0.201541 16.4679 0.278508 7.29116 -89.5525 12.2885 0.765784 0.807597 0.617531 0.800602 0.773098 -21.9164 0.487694 1.0004 -1.90373 0.48769 1.00039 81.9745 -50.7135 -112.701 27.2404 -10.0274 10.2296 -7.74287 -12.8238 -43.0374 -5.60224 -0.497313 3.56826 -98.6044 -42.2914 63.1319 -38.9949 5.57618 12.4594 3.07221 5.50896 -27.4843 12.0986 1.05168 4.63156 6.71338 -2.81334 0.641872 0.309092 -2.81511 1.2636 
46.4264 96.1215 -15.5667 87.8016 -37.9792 87.0087 -174.138 10.2708 84.8569 -20.1424 16.5757 -1.92416 61.5946 7.38974 15.8718 44.9442 13.4827 -27.6018 176.804 25.2452 89.56 -54.157 12.659 -1.62454 55.2296 -1.77905 -0.983921 39.6078 1.27418 18.7773 -0.179276 7.22114 -89.8006 12.4312 -0.261394 0.428148 0.760263 -0.242266 0.439222 -21.7748 -0.377984 0.329793 -1.76214 -0.377962 0.329795 81.7342 -51.6278 -112.723 27.8194 -10.4748 14.3413 -8.66008 -16.4863 -39.7079 -1.82208 -0.308588 3.90819 -99.2751 -41.9214 61.9244 -36.4656 6.42307 8.35036 3.73469 3.56099 -36.2532 14.2558 0.992841 3.01928 6.81906 -2.00921 0.387177 0.238027 -1.8763 2.86731 
51.5968 96.4586 -11.3867 86.5171 -34.9714 86.3065 -173.715 5.96232 85.7018 -17.1217 18.7413 -2.09706 61.0902 6.42882 14.931 48.9017 16.4173 -26.0756 177.177 27.4156 89.2315 -39.0523 14.2326 0.146087 59.8401 -2.31509 -1.31525 42.4186 1.83387 17.0797 -0.56058 7.14347 -89.865 12.5891 -1.0492 0.392029 0.918505 -1.03091 0.437822 -21.62 -1.11851 0.0585433 -1.60732 -1.11851 0.0585417 81.2032 -52.6189 -113.138 28.6423 -10.2342 18.3215 -7.96157 -17.9226 -37.0193 0.804797 -0.152894 3.86875 -99.2318 -40.5651 61.414 -33.0854 6.72656 3.63878 6.88267 4.96242 -45.3427 14.6681 0.960248 2.63549 7.91544 -1.61579 -0.431319 -0.148517 -1.27258 3.88564 
56.9061 95.6853 -6.90833 85.8766 -32.9599 85.0897 -173.258 2.05842 85.766 -17.0753 19.7609 -2.23952 61.7996 6.64702 14.1983 53.064 20.39 -21.5182 178.898 27.3159 87.6255 -20.1742 11.5156 0.24711 62.9866 -2.43347 -1.36873 49.2812 2.87684 13.5843 -0.843441 7.13436 -89.7921 12.6103 -1.57627 0.599536 0.940111 -1.54835 0.668338 -21.6026 -1.68355 0.0979611 -1.58999 -1.68357 0.0979582 81.854 -52.8405 -112.118 30.1803 -9.64288 21.2412 -8.07412 -19.221 -35.1409 3.00851 -0.00579926 4.57104 -98.8309 -38.9843 61.3704 -28.5727 6.90714 -1.54322 8.17029 3.87122 -52.5329 14.4524 0.870563 2.12202 9.30141 -1.24978 -1.6084 -0.803149 -0.6081 5.06181 
62.2707 94.3934 -2.04076 84.8343 -31.9007 83.9021 -172.864 -1.37984 86.5207 -17.2391 23.1541 -2.12829 62.2825 9.5666 18.1011 59.566 24.0879 -25.1332 -178.323 28.6726 86.6641 -6.08572 12.764 -1.31227 65.3262 -1.82945 -0.962834 53.6254 4.14864 16.516 -1.01979 7.10425 -89.7529 12.6727 -1.90753 0.718172 1.00291 -1.8741 0.801443 -21.5432 -2.03516 0.111464 -1.53055 -2.03517 0.111445 83.0913 -53.0374 -110.26 30.7798 -9.16714 23.4565 -8.37636 -19.9608 -34.3936 4.85069 0.111283 4.73392 -98.0467 -37.8344 62.1511 -24.543 5.22832 -6.0797 9.22555 2.74392 -58.4414 13.7996 0.807223 1.9394 10.9328 -0.995504 -2.7859 -1.78162 -0.0491576 6.27893 
67.6526 92.7296 3.08492 85.8265 -29.9343 83.6307 -172.811 -4.06407 88.0284 -22.0226 28.1326 -1.28196 61.2492 8.14714 16.7077 65.5764 29.8644 -21.2977 -178.618 29.6419 86.2527 -4.72875 15.6456 -0.905961 69.9626 -3.0712 -1.59487 50.3108 4.36107 23.8246 -1.33204 7.19827 -89.6646 12.4897 -2.48696 0.956481 0.820677 -2.44243 1.06505 -21.7334 -2.65935 0.164338 -1.72078 -2.65936 0.164334 83.9481 -54.101 -108.681 29.8679 -7.29837 25.3527 -9.22194 -19.7641 -34.2444 6.55377 0.16087 3.78841 -97.2232 -36.6656 63.0142 -22.0102 3.39595 -9.74118 9.778 2.39456 -60.7907 14.8865 0.970988 2.61872 11.7296 -0.732351 -4.57741 -2.37798 0.692219 7.9645 
73.8565 91.0956 8.70029 86.7643 -30.9811 85.2706 -173.013 -6.57849 90.4002 -27.7903 30.2916 0.388103 57.6684 3.27646 12.3588 72.1418 38.1673 -14.5118 -179.029 33.6913 88.4058 -18.8781 13.2187 -0.0721487 64.8717 -1.65265 -0.842369 48.4413 3.33215 18.7216 -1.37859 7.17018 -89.8354 12.5433 -2.66033 0.637987 0.874839 -2.62968 0.75452 -21.6821 -2.72898 -0.191649 -1.66947 -2.729 -0.191648 84.3939 -53.0391 -108.368 29.9213 -5.15928 27.2856 -8.17741 -17.681 -32.8378 5.48637 0.133078 3.77313 -96.4994 -36.5388 64.1826 -22.2094 1.39642 -8.53578 10.8234 2.28898 -63.3865 15.4957 1.13772 3.4351 11.395 0.359528 -4.20871 -3.41773 1.59125 8.13424 
80.4795 90.3593 14.1609 87.9479 -32.4239 90.1481 -172.357 -7.33561 95.5512 -32.9436 28.0681 1.80577 44.4867 -8.01546 2.23888 86.1345 52.0464 -11.2549 -179.968 35.5445 93.3824 -32.4935 11.2642 0.908434 59.751 -0.326838 -0.0199401 40.5605 1.40114 16.4228 -1.32081 7.17509 -90.3807 12.5215 -2.80527 -0.43596 0.853514 -2.82175 -0.311973 -21.7019 -2.54449 -1.25941 -1.68928 -2.54448 -1.25941 83.219 -53.0916 -110.057 27.9096 -3.91808 27.9673 -8.39196 -17.8993 -31.1541 2.85891 0.00442353 4.61638 -96.6868 -38.2741 64.5898 -22.4894 0.959335 -5.07664 10.2545 1.45903 -64.6963 16.9985 1.45239 4.65204 11.1663 1.40367 -3.37323 -4.82996 2.31396 8.80413 
86.0579 89.8504 18.9987 89.9561 -34.9326 92.4654 -173.129 -2.5423 96.7482 -46.1401 24.0009 1.89023 33.8483 -14.7409 -4.00649 43.0192 16.4156 3.35103 178.475 33.5924 96.523 -41.5864 10.6402 1.82086 66.8052 -2.0346 -1.07189 32.955 -0.249316 19.57 -1.02797 7.29182 -90.4968 12.284 -2.27848 -0.735181 0.614854 -2.30861 -0.634149 -21.9311 -1.95218 -1.38616 -1.91843 -1.95218 -1.38616 83.6694 -52.2332 -109.682 27.8611 -3.41177 25.8076 -7.29022 -15.9928 -31.2881 0.765896 -0.0999653 5.20588 -97.8349 -39.033 63.0148 -23.9544 1.55772 -1.32617 7.97758 0.564705 -61.9033 18.3 1.54916 4.59951 11.4504 1.4962 -2.80757 -5.36106 2.22645 8.08544 
91.3771 91.2019 23.9682 90.4921 -36.3261 92.7211 -173.898 6.24482 96.3023 -57.5655 22.0983 1.33521 38.7967 -11.3986 2.09315 45.9577 19.1671 0.965097 178.688 28.2049 97.4619 -41.9079 10.3533 1.57945 70.6737 -2.68003 -1.37373 29.4331 -1.10058 19.6513 -0.656763 7.30119 -90.4178 12.2679 -1.5033 -0.665754 0.597672 -1.53114 -0.59894 -21.9412 -1.23373 -1.08681 -1.92855 -1.23373 -1.08682 83.4422 -50.7783 -110.501 30.0455 -3.15409 23.0229 -7.86099 -14.786 -32.8328 -2.62632 -0.348368 5.22024 -98.7284 -39.8953 61.933 -25.3383 4.61309 -1.04992 7.55404 2.68807 -53.0529 17.4246 1.52972 4.89398 10.9148 0.525176 -2.43542 -5.17337 1.16886 6.24823 
